# xmcd
# 
# Track frame offsets:
#     212
#     24942
#     46930
#     65755
#     86397
#     107537
#     133482
#     153262
#     179065
#     205707
#     228507
#     246882
# 
# Disc length: 3630
# 
# Revision: 2
# Processed by: cddbd v1.5.2PL0 Copyright (c) Steve Scherf et al.
# Submitted via: fre:ac v1.0.17
# 
DISCID=9f0e2c0c
DTITLE=Sam Riney - Dark hero (1996)
DYEAR=1996
DGENRE=Jazz Fusion
TTITLE0=It Is Written
TTITLE1=Nightwind
TTITLE2=Everything Reminds Me Of You
TTITLE3=Chaco Canyon
TTITLE4=Choices
TTITLE5=Too Many Steps
TTITLE6=Until That Time
TTITLE7=Here We Go
TTITLE8=Dark Hero
TTITLE9=Live And Let Live
TTITLE10=Whisper
TTITLE11=Giverny
EXTD=Kokopelli Records
EXTT0=
EXTT1=
EXTT2=
EXTT3=
EXTT4=
EXTT5=
EXTT6=
EXTT7=
EXTT8=
EXTT9=
EXTT10=
EXTT11=
PLAYORDER=
